<svg id="Layer_1" data-name="Layer 1" xmlns="http://www.w3.org/2000/svg" xmlns:xlink="http://www.w3.org/1999/xlink" viewBox="0 0 500 500"><defs><style>.cls-1{fill:#c1f4f4;}.cls-2{fill:#f6b381;}.cls-3{fill:#f6906b;}.cls-4{fill:url(#linear-gradient);}.cls-5{fill:url(#linear-gradient-2);}.cls-6{fill:#f9fbfc;}.cls-7{fill:url(#linear-gradient-3);}.cls-8{fill:url(#linear-gradient-4);}.cls-9{fill:url(#linear-gradient-5);}.cls-10{fill:#fff;}.cls-11{fill:#cfe3ff;}.cls-12,.cls-13,.cls-14{isolation:isolate;}.cls-13,.cls-14{font-size:10.76px;fill:#606565;font-family:MontserratSubrayada-Bold, Montserrat Subrayada;font-weight:700;}.cls-13{letter-spacing:0.04em;}.cls-14{letter-spacing:0.04em;}.cls-15{fill:url(#linear-gradient-6);}.cls-16{fill:#0cf;}.cls-17{fill:#e3e3e6;}.cls-18{fill:#f1e8e1;}.cls-19{fill:#ddd3d2;}.cls-20{fill:#393c63;}.cls-21{fill:#2f2d4f;}</style><linearGradient id="linear-gradient" x1="41.95" y1="-127.23" x2="345.94" y2="413.2" gradientTransform="matrix(1, 0, 0, -1, 0, 502)" gradientUnits="userSpaceOnUse"><stop offset="0" stop-color="#7f5eff"/><stop offset="0.24" stop-color="#8665ff"/><stop offset="0.6" stop-color="#9978ff"/><stop offset="0.94" stop-color="#b391ff"/></linearGradient><linearGradient id="linear-gradient-2" x1="276.4" y1="266.08" x2="180.4" y2="424.08" xlink:href="#linear-gradient"/><linearGradient id="linear-gradient-3" x1="265.15" y1="170.8" x2="244.74" y2="102.45" gradientTransform="matrix(1, 0, 0, -1, 0.01, 502)" gradientUnits="userSpaceOnUse"><stop offset="0" stop-color="#9a79ff"/><stop offset="0.94" stop-color="#b391ff"/></linearGradient><linearGradient id="linear-gradient-4" x1="261.44" y1="369.23" x2="265.65" y2="373.45" xlink:href="#linear-gradient"/><linearGradient id="linear-gradient-5" x1="275.97" y1="343.89" x2="219.97" y2="250.55" gradientTransform="matrix(0.16, 0.99, 0.99, -0.16, -90.68, -8.8)" gradientUnits="userSpaceOnUse"><stop offset="0" stop-color="#9a79ff"/><stop offset="0.34" stop-color="#ba76e8"/><stop offset="0.94" stop-color="#fb6fb9"/></linearGradient><linearGradient id="linear-gradient-6" x1="262.39" y1="225.2" x2="228.39" y2="174.53" gradientTransform="matrix(1, 0, 0, -1, 0, 502)" xlink:href="#linear-gradient-5"/></defs><title>hands</title><path class="cls-1" d="M420.84,190.63c63.48,114.15-25.68,276.29-137.52,276.29S-2.24,319,83.8,230.39C148.49,163.8,77.44,57,189.28,57S365.58,91.26,420.84,190.63Z"/><g id="OBJECTS"><path class="cls-2" d="M110.71,403.9l8.85-68.42a27.56,27.56,0,0,1,10.6-18.37l43.17-32.94,23.39,74.32-53.67,59.86Z"/><path class="cls-3" d="M172.29,307.17,142,332.31a3.46,3.46,0,0,0-1.16,3.55l10.77,41.94a3.47,3.47,0,0,0,6.1,1.29l21.61-27.56a3.48,3.48,0,0,0,.15-4.09l-2.09-39.52a3.49,3.49,0,0,0-4.85-.93Z"/><path class="cls-2" d="M392.14,349.9l-8.85-68.42a27.53,27.53,0,0,0-10.61-18.37l-43.16-32.94-23.4,74.32,53.67,59.86Z"/><path class="cls-3" d="M330.55,253.17l30.28,25.14a3.48,3.48,0,0,1,1.17,3.55L351.23,323.8a3.48,3.48,0,0,1-6.11,1.29l-21.61-27.56a3.48,3.48,0,0,1-.15-4.09l2.09-39.52a3.49,3.49,0,0,1,4.85-.94Z"/><rect class="cls-4" x="174.26" y="113.41" width="159.48" height="277.67" rx="25.44"/><path class="cls-5" d="M329.19,124.33a25.44,25.44,0,0,0-20.89-10.92H199.7a25.44,25.44,0,0,0-25.44,25.44h0V266.29C264.19,220.27,308.89,160.57,329.19,124.33Z"/><rect class="cls-6" x="183.12" y="157.08" width="141.76" height="194.61" rx="2.55"/><circle class="cls-7" cx="254.01" cy="368.55" r="8.31"/><path class="cls-8" d="M268,143.31H240a3.08,3.08,0,0,1-3.09-3.07h0a3.09,3.09,0,0,1,3.09-3.09h28a3.09,3.09,0,0,1,3.09,3.09h0a3.08,3.08,0,0,1-3.08,3.08Z"/><circle class="cls-9" cx="254.85" cy="193.31" r="19.73" transform="translate(23.21 413.9) rotate(-80.78)"/><path class="cls-10" d="M262.61,187.72a7.33,7.33,0,1,1-7.33-7.33,7.33,7.33,0,0,1,7.33,7.33Z"/><path class="cls-10" d="M243,209a12,12,0,0,1,24,0s-5.51,4.68-12.17,4.8S243,209,243,209Z"/><rect class="cls-11" x="200.84" y="227.24" width="111.12" height="15.54" rx="2.75"/><g class="cls-12"><text class="cls-13" transform="translate(208.34 239.01)">N</text><text class="cls-13" transform="translate(215.85 239.01)">A</text><text class="cls-14" transform="translate(222.83 239.01)">ME</text></g><rect class="cls-11" x="200.84" y="249.12" width="111.12" height="15.54" rx="2.75"/><text class="cls-13" transform="translate(208.34 262.91)">**********</text><rect class="cls-15" x="227.42" y="286.06" width="47.21" height="15.35" rx="6.52"/><rect class="cls-16" x="227.42" y="312.06" width="47.21" height="15.35" rx="6.52"/><path class="cls-2" d="M343.69,393.69,338.42,377a2.86,2.86,0,0,0-1.65-1.78L317,367.31c-18.15-7.26-17.49-35.69-17-43.29a2.81,2.81,0,0,0-1.59-2.73l-20.74-10.11c-7.07-3.44-12.86-12.7-12.86-20.57v-.05c0-8.23,6.34-12.69,14.09-9.89l52.87,19.06a2.89,2.89,0,0,1,1.47,1.22L361,347.49a2.83,2.83,0,0,0,3.33,1.24L387.78,341a2.84,2.84,0,0,1,3.58,1.79,2.45,2.45,0,0,1,.08.29l10.94,49.15a2.84,2.84,0,0,1-2.17,3.39,2.54,2.54,0,0,1-.61.07H346.4A2.84,2.84,0,0,1,343.69,393.69Z"/><path class="cls-3" d="M342.59,362.7c-38.53-6.88-28.9-46.79-28.9-46.79l-48.35-21.22c1.52,6.76,6.5,13.63,12.37,16.49l20.74,10.11h0l1.75.85s-.09.81-.18,2.19v2.37a1.5,1.5,0,0,0,0,.3v7.32c0,.54.07,1.09.11,1.65v.08c0,.53.09,1.08.14,1.63l.06.55a10.22,10.22,0,0,0,.13,1.2l.09.67.15,1.12.12.71c.06.38.12.75.19,1.13l.12.7c.08.4.16.8.25,1.19a3,3,0,0,0,.13.65c.11.49.23,1,.36,1.48a1.59,1.59,0,0,0,.08.35c.16.6.33,1.21.51,1.81l.16.49c.14.44.28.87.43,1.3.07.22.15.43.23.65s.28.75.43,1.12l.28.68c.09.22.31.71.47,1.06s.21.45.32.67.35.7.54,1.05.21.41.33.61c.22.39.45.78.68,1.15.1.15.18.3.28.45.33.52.68,1,1.05,1.51.07.1.15.19.23.29q.45.59.93,1.14l.43.47q.4.45.84.87l.52.49c.28.26.57.51.86.75l.58.46a10.25,10.25,0,0,0,1,.69l.6.4c.36.23.73.44,1.11.65.18.1.36.21.55.3a19.11,19.11,0,0,0,1.78.82l6.45,2.58.7.28,3.75,1.5,2.44,1,7.67,3.06,5.67,18a2.84,2.84,0,0,0,2.71,2H359l-7.5-31.6Z"/><path class="cls-17" d="M273.18,290.17l1.79-3.48a4,4,0,0,1,4.86-1.91l8.92,3.23a4,4,0,0,1,2.32,5.16,2.17,2.17,0,0,1-.15.35l-2.57,5a3.94,3.94,0,0,1-5.3,1.72l-.2-.11-8.15-4.77A4,4,0,0,1,273.18,290.17Z"/><rect class="cls-18" x="331.77" y="385.36" width="78.45" height="22.71" rx="6.54" transform="translate(-57.67 63.15) rotate(-9.03)"/><rect class="cls-19" x="331.96" y="387.84" width="47.02" height="22.71" rx="7.8" transform="translate(-58.25 60.74) rotate(-9.03)"/><polygon class="cls-20" points="433 500 415.67 394.11 326.42 408.3 341.5 500 433 500"/><path class="cls-21" d="M396.06,500l-13.89-84.3a16.05,16.05,0,0,0-18.36-13.34h0l-37.38,5.94L341.5,500Z"/><path class="cls-2" d="M159.15,447.69l5.27-16.7a2.86,2.86,0,0,1,1.65-1.78l19.77-7.9c18.15-7.26,17.48-35.69,17-43.29a2.81,2.81,0,0,1,1.59-2.73l20.74-10.11c7.08-3.44,12.86-12.7,12.86-20.57v-.05c0-8.23-6.34-12.69-14.09-9.89L171,353.73a2.93,2.93,0,0,0-1.47,1.22L141.8,401.49a2.82,2.82,0,0,1-3.33,1.24L115.07,395a2.83,2.83,0,0,0-3.59,1.8,2.29,2.29,0,0,0-.08.28l-10.93,49.15a2.84,2.84,0,0,0,2.13,3.39,2.73,2.73,0,0,0,.64.07h53.2A2.84,2.84,0,0,0,159.15,447.69Z"/><path class="cls-3" d="M160.25,416.7c38.54-6.88,28.9-46.79,28.9-46.79l48.36-21.22c-1.53,6.76-6.5,13.63-12.38,16.49l-20.74,10.11h0l-1.75.85s.09.81.18,2.19v1.3a8,8,0,0,0,.05,1.07v6a8.74,8.74,0,0,1-.05,1.06v.54c0,.54-.07,1.09-.11,1.65v.08a15.37,15.37,0,0,1-.14,1.63,1.75,1.75,0,0,1-.06.55,10.22,10.22,0,0,1-.13,1.2l-.09.67-.15,1.12a4.53,4.53,0,0,1-.11.71c0,.24-.13.75-.19,1.13s-.09.47-.13.7L201.5,399c-.05.22-.09.43-.14.65-.11.49-.23,1-.35,1.48l-.09.35c-.16.6-.33,1.21-.51,1.81l-.16.49c-.13.44-.27.87-.42,1.3l-.24.65c-.14.37-.28.75-.43,1.12l-.28.68c-.09.22-.31.71-.47,1.06s-.21.45-.32.67-.35.7-.54,1.05-.21.41-.33.61c-.21.39-.45.78-.68,1.15l-.27.45c-.34.52-.69,1-1.06,1.51-.07.1-.15.19-.23.29-.3.39-.6.77-.93,1.14l-.43.47c-.27.3-.55.59-.83.87s-.35.33-.53.49-.57.51-.86.75l-.58.46c-.3.24-.62.46-.94.69l-.6.4c-.36.23-.74.44-1.11.65l-.55.3c-.58.3-1.17.57-1.78.82l-6.46,2.58-.7.28-3.75,1.5-2.44,1-7.66,3.06-5.68,18a2.84,2.84,0,0,1-2.71,2H143.8l7.51-31.6Z"/><path class="cls-17" d="M229.66,344.17l-1.79-3.48a4,4,0,0,0-4.85-1.91L214.1,342a4,4,0,0,0-2.33,5.15,2.75,2.75,0,0,0,.15.36l2.57,5a4,4,0,0,0,5.41,1.67l.1-.06,8.14-4.77A4,4,0,0,0,229.66,344.17Z"/><rect class="cls-18" x="120.42" y="411.46" width="22.71" height="78.45" rx="6.54" transform="translate(-334 510.09) rotate(-80.97)"/><rect class="cls-19" x="135.94" y="429.64" width="22.71" height="47.02" rx="7.8" transform="translate(-323.35 527.5) rotate(-80.97)"/><polygon class="cls-20" points="170.22 500 176.42 462.3 87.17 448.11 78.68 500 170.22 500"/><path class="cls-21" d="M170.22,500l6.2-37.7-37.37-5.94a16.06,16.06,0,0,0-18.38,13.34l-5,30.3Z"/></g></svg>