<svg xmlns="http://www.w3.org/2000/svg" viewBox="0 0 463.48 330.93"><defs><style>.cls-1{opacity:0.35;}.cls-2{fill:#c3ecfe;}.cls-10,.cls-20,.cls-21,.cls-22,.cls-26,.cls-3{fill:none;}.cls-3{stroke:#c3ecfe;}.cls-10,.cls-21,.cls-3{stroke-miterlimit:10;}.cls-10,.cls-3{stroke-width:1.39px;}.cls-4{fill:#599fd2;}.cls-5{fill:#88d2ff;}.cls-6{fill:#9bdfff;}.cls-7{fill:#c0edff;}.cls-8{fill:#fe7d90;}.cls-9{opacity:0.5;}.cls-10{stroke:#ccf3ff;}.cls-11{fill:#ccf3ff;}.cls-12{fill:#a1d7e5;opacity:0.4;}.cls-13{fill:#e8505b;}.cls-14,.cls-18{opacity:0.45;}.cls-15,.cls-18{fill:#b03d44;}.cls-16{fill:#3e89cc;}.cls-17{fill:#fff;}.cls-19{opacity:0.15;}.cls-20{stroke:#0964af;stroke-width:3.12px;}.cls-20,.cls-22,.cls-26{stroke-linecap:round;stroke-linejoin:round;}.cls-21{stroke:#2396b5;stroke-width:1.16px;}.cls-22{stroke:#ffa829;stroke-width:3.47px;}.cls-23{fill:#ffb392;}.cls-24{fill:#57c6f2;}.cls-25{fill:#e5f8ff;}.cls-26{stroke:#a1d2f0;stroke-width:0.57px;}.cls-27{fill:#f2a181;}.cls-28{fill:#ffbe9d;}.cls-29{fill:#1b227a;}.cls-30{fill:#170d54;}</style></defs><title>Asset 1</title><g id="Layer_2" data-name="Layer 2"><g id="OBJECTS"><g class="cls-1"><path class="cls-2" d="M429.39,233.22c-7.41-26.56,16.13-27.58,16.64-61.8.22-14-7.45-28.25-25.9-34.79-9.07-3.21-18.1-5.42-26.17-10.53-18.38-11.64-18-33.8-23.07-52.69C359.88,31.93,273.6-1,230.69,0,199.76.8,185.49,15.71,157.3,42c-19.3,18-53.29,16.33-43.39,62.75,8.83,41.34-12,38.27-31,53.53s-32.95,33.4-25.38,54C65.83,235,14.73,248,5.62,277.51c-6.19,20,26.28,21.68,48.38,21.68s211.16-1.7,291.13.67c21.52.64,90.19,6.5,99.9-20.33C451.64,261.27,434.56,251.77,429.39,233.22Z"/></g><path class="cls-3" d="M453.93,225c-16,37.19-46.77,67.54-83.68,84"/><path class="cls-2" d="M449.24,234.84a30.58,30.58,0,0,0,10.54-18.52c.28-1.76.34-3.76-.84-5.1a2,2,0,0,0-1.24-.71,2.53,2.53,0,0,0-2,1.08c-2.78,3.12-3.74,7.44-4.22,11.59s-1.38,7.19-2.24,11.66"/><path class="cls-2" d="M441.65,247.51A30.59,30.59,0,0,0,444,226.32c-.44-1.72-1.18-3.58-2.79-4.33a2,2,0,0,0-1.43-.17,2.56,2.56,0,0,0-1.4,1.79c-1.31,4-.48,8.31.73,12.3s1.58,7.15,2.56,11.6"/><path class="cls-2" d="M430.48,263.1a30.63,30.63,0,0,0,4.91-20.75c-.23-1.76-.74-3.7-2.24-4.64a2,2,0,0,0-1.4-.34c-.77.14-1.27.89-1.61,1.6-1.78,3.78-1.49,8.19-.78,12.3s.69,7.29,1.12,11.83"/><path class="cls-2" d="M417.65,276.76A30.64,30.64,0,0,0,422.56,256c-.23-1.77-.74-3.7-2.25-4.65a2,2,0,0,0-1.39-.34,2.6,2.6,0,0,0-1.61,1.61c-1.79,3.77-1.5,8.18-.79,12.3s.7,7.29,1.13,11.83"/><path class="cls-2" d="M398.43,292.52a30.65,30.65,0,0,0,7-20.13c0-1.78-.35-3.76-1.75-4.85a2,2,0,0,0-1.35-.49,2.58,2.58,0,0,0-1.77,1.43c-2.17,3.57-2.34,8-2.06,12.16s-.06,7.32-.1,11.88"/><path class="cls-2" d="M383.37,302.58a32.67,32.67,0,0,0,8.15-19.11c.16-1.77.11-3.77-1-5a1.64,1.64,0,0,0-1.1-.65c-.68,0-1.25.59-1.67,1.21-2.23,3.27-2.85,7.64-3,11.81s-.83,7.26-1.35,11.77"/><path class="cls-2" d="M437.85,253.09a33.13,33.13,0,0,0,21.93-4.21c1.62-.95,3.31-2.24,3.65-4a2,2,0,0,0-.2-1.44,2.55,2.55,0,0,0-2.16-.82c-4.33-.06-8.49,2.07-12.2,4.47s-6.79,3.72-11,6"/><path class="cls-2" d="M428.83,264.89a33.24,33.24,0,0,0,22.3,1.15c1.8-.55,3.74-1.4,4.51-3.06a2,2,0,0,0,.15-1.45,2.58,2.58,0,0,0-1.91-1.31c-4.18-1.09-8.73,0-12.91,1.43s-7.49,2-12.14,3.24"/><path class="cls-2" d="M415.35,278.64A33.22,33.22,0,0,0,437,284.23c1.87-.17,3.95-.62,5-2.1a1.92,1.92,0,0,0,.43-1.38c-.1-.78-.87-1.31-1.6-1.67-3.88-1.91-8.55-1.76-12.94-1.18s-7.73.45-12.54.74"/><path class="cls-2" d="M396.49,294.52a33.18,33.18,0,0,0,22.32.66c1.8-.58,3.72-1.48,4.44-3.16a1.93,1.93,0,0,0,.12-1.45,2.57,2.57,0,0,0-1.93-1.27c-4.21-1-8.73.18-12.88,1.71s-7.44,2.17-12.07,3.51"/><path class="cls-2" d="M381.25,303.63a33.2,33.2,0,0,0,19.63,10.63c1.87.29,4,.35,5.39-.82a2,2,0,0,0,.76-1.24,2.53,2.53,0,0,0-1.16-2c-3.31-2.79-7.88-3.78-12.27-4.27s-7.62-1.42-12.35-2.3"/><path class="cls-4" d="M363.57,146.71a.39.39,0,0,1-.37-.37l-.14-2a.39.39,0,1,1,.78,0l.14,2a.4.4,0,0,1-.36.42Z"/><polygon class="cls-2" points="372.5 237.1 367.25 237.47 361.4 152.71 364.02 152.53 366.65 152.34 372.5 237.1"/><polygon class="cls-2" points="364.06 145.49 363 145.56 361.4 152.71 366.65 152.34 364.06 145.49"/><path class="cls-3" d="M106.85,166.58c9.35,51.09,45,96.64,92.29,118"/><path class="cls-2" d="M109.22,177.27a30.55,30.55,0,0,1-6.15-20.41c.12-1.77.51-3.74,2-4.77a1.9,1.9,0,0,1,1.37-.42,2.53,2.53,0,0,1,1.7,1.5c2,3.66,2,8.08,1.53,12.23s-.26,7.32-.41,11.87"/><path class="cls-2" d="M113.79,191.32a30.59,30.59,0,0,1,2.45-21.18c.81-1.58,2-3.23,3.69-3.6a2,2,0,0,1,1.43.15,2.56,2.56,0,0,1,1,2.06c.4,4.15-1.38,8.2-3.44,11.83s-3.14,6.62-5.09,10.74"/><path class="cls-2" d="M121.2,209a30.67,30.67,0,0,1-.16-21.32c.62-1.67,1.54-3.44,3.22-4a2,2,0,0,1,1.44,0,2.58,2.58,0,0,1,1.21,1.93c.9,4.07-.37,8.31-2,12.16s-2.3,7-3.73,11.28"/><path class="cls-2" d="M130.66,225.17a30.58,30.58,0,0,1-.15-21.31c.61-1.67,1.54-3.45,3.22-4a2,2,0,0,1,1.43,0,2.53,2.53,0,0,1,1.22,1.92c.9,4.08-.37,8.31-2,12.17s-2.3,6.95-3.74,11.27"/><path class="cls-2" d="M145.89,244.83a30.61,30.61,0,0,1-2.36-21.19c.43-1.73,1.17-3.59,2.78-4.34a2,2,0,0,1,1.43-.17,2.54,2.54,0,0,1,1.4,1.78c1.32,4,.5,8.31-.7,12.31s-1.57,7.15-2.55,11.61"/><path class="cls-2" d="M158.32,258a32.64,32.64,0,0,1-3.68-20.45c.24-1.77.74-3.71,2.08-4.69a1.61,1.61,0,0,1,1.22-.38c.67.12,1.08.84,1.35,1.54,1.45,3.69,1.08,8.08.34,12.19s-.8,7.27-1.31,11.79"/><path class="cls-2" d="M116.25,197.6a33.09,33.09,0,0,1-20.44-9c-1.37-1.29-2.72-2.92-2.66-4.76a1.93,1.93,0,0,1,.52-1.35,2.53,2.53,0,0,1,2.29-.32c4.23.9,7.81,3.91,10.9,7.08s5.79,5.14,9.39,8.34"/><path class="cls-2" d="M122.42,211.11a33.14,33.14,0,0,1-22-3.85c-1.64-.93-3.34-2.19-3.71-4a1.94,1.94,0,0,1,.17-1.44A2.56,2.56,0,0,1,99,201c4.33-.13,8.52,1.93,12.27,4.27s6.85,3.61,11.12,5.86"/><path class="cls-2" d="M132.49,227.53a33.18,33.18,0,0,1-22.32.62c-1.8-.58-3.72-1.48-4.44-3.16a2,2,0,0,1-.12-1.45,2.53,2.53,0,0,1,1.94-1.26c4.21-1,8.73.18,12.88,1.72s7.43,2.17,12.06,3.53"/><path class="cls-2" d="M147.33,247.21a33.18,33.18,0,0,1-21.91-4.34c-1.61-1-3.29-2.26-3.62-4.07a1.91,1.91,0,0,1,.21-1.43,2.53,2.53,0,0,1,2.16-.81c4.33,0,8.48,2.12,12.18,4.54s6.77,3.77,11,6.11"/><path class="cls-2" d="M160.16,259.49a33.17,33.17,0,0,1-21.51,6c-1.88-.13-4-.54-5.07-2a1.92,1.92,0,0,1-.46-1.37c.09-.79.84-1.33,1.57-1.7,3.85-2,8.52-1.92,12.91-1.43s7.74.32,12.56.52"/><path class="cls-3" d="M14.73,237.92C66.61,235.55,119,260,150.47,301.33"/><path class="cls-2" d="M25.68,237.82a30.65,30.65,0,0,0-21.27-1.4c-1.71.51-3.53,1.33-4.22,3a2,2,0,0,0-.1,1.43,2.56,2.56,0,0,0,1.85,1.32c4,1.14,8.32.12,12.26-1.26s7.08-1.89,11.48-3.07"/><path class="cls-2" d="M40.39,239.12a30.6,30.6,0,0,0-20.08,7.15c-1.36,1.15-2.71,2.62-2.69,4.4a2.07,2.07,0,0,0,.47,1.36,2.57,2.57,0,0,0,2.22.48c4.14-.55,7.69-3.19,10.76-6s5.75-4.54,9.32-7.37"/><path class="cls-2" d="M59.29,242.37A30.66,30.66,0,0,0,38.48,247c-1.49,1-3,2.27-3.21,4a2,2,0,0,0,.31,1.4,2.52,2.52,0,0,0,2.14.75c4.18,0,8-2.22,11.42-4.66s6.25-3.8,10.15-6.17"/><path class="cls-2" d="M77.17,248a30.62,30.62,0,0,0-20.8,4.64c-1.49,1-3,2.27-3.21,4a2,2,0,0,0,.3,1.4,2.54,2.54,0,0,0,2.15.75c4.18,0,8-2.22,11.41-4.66s6.26-3.8,10.15-6.17"/><path class="cls-2" d="M99.74,258.38a30.65,30.65,0,0,0-21.18,2.46c-1.58.81-3.23,2-3.6,3.69a2,2,0,0,0,.15,1.42,2.55,2.55,0,0,0,2.06,1c4.16.4,8.21-1.38,11.83-3.45s6.62-3.14,10.74-5.09"/><path class="cls-2" d="M115.37,267.54a32.7,32.7,0,0,0-20.76,1c-1.66.64-3.44,1.56-4.1,3.08a1.65,1.65,0,0,0-.09,1.28c.26.62,1.06.86,1.8,1,3.93.58,8.12-.77,12-2.41s6.9-2.41,11.19-3.92"/><path class="cls-2" d="M47.07,240.11a33.17,33.17,0,0,0-13.36-17.9c-1.56-1-3.46-2-5.23-1.52a2,2,0,0,0-1.2.81,2.53,2.53,0,0,0,.2,2.3c1.83,3.92,5.57,6.73,9.34,9s6.32,4.49,10.25,7.28"/><path class="cls-2" d="M61.62,243.08a33.19,33.19,0,0,0-8.7-20.57c-1.27-1.38-2.88-2.76-4.72-2.72a2,2,0,0,0-1.36.49,2.56,2.56,0,0,0-.35,2.29c.84,4.25,3.79,7.87,6.92,11s5.06,5.86,8.21,9.51"/><path class="cls-2" d="M79.87,249.21a33.14,33.14,0,0,0-4.4-21.89c-1-1.62-2.28-3.29-4.08-3.61a1.9,1.9,0,0,0-1.43.21,2.51,2.51,0,0,0-.8,2.17c0,4.32,2.14,8.46,4.57,12.16s3.79,6.76,6.14,11"/><path class="cls-2" d="M102.39,259.25a33.17,33.17,0,0,0-9.15-20.37c-1.3-1.36-2.95-2.7-4.78-2.62a2,2,0,0,0-1.35.52,2.55,2.55,0,0,0-.3,2.3c.94,4.22,4,7.78,7.16,10.84s5.19,5.75,8.42,9.33"/><path class="cls-2" d="M117.23,269a33.15,33.15,0,0,0,1-22.31c-.55-1.8-1.41-3.74-3.09-4.49a1.91,1.91,0,0,0-1.44-.14,2.54,2.54,0,0,0-1.3,1.91c-1.07,4.2,0,8.74,1.51,12.91s2,7.47,3.32,12.12"/><path class="cls-2" d="M178.68,259.87a36.7,36.7,0,0,0-28.36-9.58c-6.93.7-14.49,4.4-16,11.2-.73,3.24-.47,7.54-3.54,8.81s-5.89-1.85-9-2.88c-5.13-1.72-11,4.14-9.25,9.27.79,2.33,2.76,4.35,2.59,6.81-.22,3.34-4.35,5.08-7.66,4.56s-6.22-2.45-9.47-3.27-7.45,0-8.58,3.15c-1,2.82.74,6.61-1.48,8.63a6,6,0,0,1-3.6,1.17c-28.1,2.67-59,7.71-55.89,12.7.86,1.36,3.05.93,4.66.9,59.8-.93,114.12-1.83,173.9,0"/><polyline class="cls-5" points="346.83 165.94 364.55 235.45 361.18 236.31 339.25 167.87"/><path class="cls-6" d="M330.42,167.52c-9.05,2.31-18.68-4.71-21.47-15.64s2.3-21.72,11.36-24,18.68,4.71,21.47,15.65S339.47,165.22,330.42,167.52Zm-8.56-33.59c-5.7,1.46-8.77,8.81-6.83,16.39s8.14,12.58,13.84,11.12,8.76-8.8,6.83-16.39S327.55,132.48,321.86,133.93Z"/><path class="cls-7" d="M339.74,148.21c.3,1.15,5.39,21.13,5.39,21.13a2,2,0,0,1-1.43,2.42h0a2,2,0,0,1-2.42-1.44l-.61-2.38s-2.83-6-10.65-3.55c0,0,9.33-1.17,9.65-1.14S339.45,147.05,339.74,148.21Z"/><path class="cls-6" d="M344.47,174.8a5.13,5.13,0,0,1-6.23-3.7,8.18,8.18,0,0,0-1-2.58c-1-1.44-3.08-2-6.86-1l-1-5.34c2-.64,3.42-1.6,5-1.48l2.16-.26c0-1.64,0-3.8-.06-5.45s2.26-3.74,2.25-5c0-2.27-2.33-4.56.48-4.93l2.77-.37,6.1,23.9A5.13,5.13,0,0,1,344.47,174.8Z"/><polyline class="cls-5" points="349.44 165.31 349.49 237.04 352.97 237.04 357.26 165.3"/><path class="cls-6" d="M348.76,142.32c0-11.29,7.59-20.48,16.93-20.48s16.95,9.17,17,20.46-7.59,20.47-16.93,20.48S348.77,153.61,348.76,142.32Zm6.28,0c0,7.82,4.8,14.19,10.68,14.18s10.66-6.37,10.65-14.2-4.79-14.19-10.67-14.19S355,134.49,355,142.32Z"/><path class="cls-7" d="M351.91,146.37c0,1.19,0,21.82,0,21.82a2,2,0,0,0,2,2h0a2,2,0,0,0,2-2v-2.46s1.25-6.55,9.45-6.08c0,0-9.34,1.19-9.64,1.29S351.9,145.18,351.91,146.37Z"/><path class="cls-6" d="M353.91,173.31a5.13,5.13,0,0,0,5.12-5.13,8.22,8.22,0,0,1,.3-2.74c.63-1.64,2.5-2.68,6.4-2.68l-.4-5.42c-2.08-.12-3.7-.7-5.23-.19l-2.16.28c-.4-1.58-.9-3.68-1.29-5.29s-3.11-3.06-3.42-4.29c-.55-2.19,1.14-5-1.68-4.66l-2.77.33v24.67A5.14,5.14,0,0,0,353.91,173.31Z"/><path class="cls-5" d="M378.82,144.16h6.83a1.17,1.17,0,0,1,1.17,1.17v78.85a0,0,0,0,1,0,0h-9.17a0,0,0,0,1,0,0V145.33A1.17,1.17,0,0,1,378.82,144.16Z" transform="translate(38.81 -65) rotate(10.24)"/><path class="cls-8" d="M385.15,144.72H392a1.17,1.17,0,0,1,1.17,1.17v7.58a0,0,0,0,1,0,0H384a0,0,0,0,1,0,0v-7.58A1.17,1.17,0,0,1,385.15,144.72Z" transform="translate(32.68 -66.69) rotate(10.24)"/><g class="cls-9"><rect class="cls-4" x="386.18" y="150.18" width="2.75" height="9.17" transform="translate(166.38 508.64) rotate(-79.76)"/></g><rect class="cls-2" x="387.13" y="156.61" width="15.83" height="85.62" transform="translate(100.64 -130.97) rotate(21.51)"/><line class="cls-10" x1="412.23" y1="163.17" x2="417.08" y2="165.08"/><line class="cls-10" x1="410.59" y1="167.31" x2="415.45" y2="169.22"/><line class="cls-10" x1="408.96" y1="171.44" x2="413.82" y2="173.36"/><line class="cls-10" x1="404.96" y1="174.64" x2="412.19" y2="177.49"/><line class="cls-10" x1="405.7" y1="179.72" x2="410.55" y2="181.63"/><line class="cls-10" x1="404.07" y1="183.86" x2="408.92" y2="185.77"/><line class="cls-10" x1="402.44" y1="187.99" x2="407.29" y2="189.91"/><line class="cls-10" x1="398.44" y1="191.2" x2="405.66" y2="194.04"/><line class="cls-10" x1="399.18" y1="196.27" x2="404.03" y2="198.18"/><line class="cls-10" x1="397.55" y1="200.41" x2="402.4" y2="202.32"/><line class="cls-10" x1="395.92" y1="204.54" x2="400.77" y2="206.46"/><line class="cls-10" x1="391.91" y1="207.75" x2="399.14" y2="210.59"/><line class="cls-10" x1="392.66" y1="212.82" x2="397.51" y2="214.73"/><line class="cls-10" x1="391.02" y1="216.96" x2="395.88" y2="218.87"/><line class="cls-10" x1="389.39" y1="221.09" x2="394.25" y2="223.01"/><line class="cls-10" x1="385.39" y1="224.3" x2="392.62" y2="227.14"/><line class="cls-10" x1="386.13" y1="229.37" x2="390.98" y2="231.28"/><line class="cls-10" x1="384.5" y1="233.51" x2="389.35" y2="235.42"/><line class="cls-10" x1="382.87" y1="237.64" x2="387.72" y2="239.56"/><path class="cls-6" d="M397.46,314.87H324.05L311.71,203.81a2.39,2.39,0,0,1,2.37-2.65h93.35a2.37,2.37,0,0,1,2.36,2.65Z"/><path class="cls-11" d="M305.4,319.71l132.66,1.81c1.49,0,6.16-1.43-1.9-6.63-6.82-4.4-28.4-.44-28.4-.44s5-2,5-4.61-2-4.88-4.36-6a16.12,16.12,0,0,0-7.65-1,48.7,48.7,0,0,0-15.42,3.45,4.47,4.47,0,1,0-5.18-7.26c3.31-4.49,8.44-24.38-7.31-33.14-19.74-11-34.73-1.95-37.92,4.66-1.63-6.49-9.08-11.4-14-12.62-11.19-2.78-18.47-1.95-28.92,2.92-3.69,1.73-8.64,7.62-11.1,10.88-3.84,5.09-4.44,11.87-4.66,18.26-.15,4.79-.18,9.58-.06,14.38"/><path class="cls-12" d="M331.24,326.78c0,2.29-44.54,4.15-99.48,4.15s-99.48-1.86-99.48-4.15,44.54-4.15,99.48-4.15S331.24,324.49,331.24,326.78Z"/><path class="cls-13" d="M233.65,37.22a10,10,0,0,0-10,10V60h20V47.21A10,10,0,0,0,233.65,37.22Zm0,15.72a5.61,5.61,0,1,1,5.6-5.6A5.6,5.6,0,0,1,233.65,52.94Z"/><g class="cls-14"><path class="cls-15" d="M239.25,47.34a5.6,5.6,0,0,0-5.6-5.61,6,6,0,0,0-.84.09,4.07,4.07,0,0,1,2.27-.54,5.6,5.6,0,0,1,5.61,5.6,4.56,4.56,0,0,1-3.6,4.88A6.14,6.14,0,0,0,239.25,47.34ZM226.72,58.73V45.93a9.76,9.76,0,0,1,4.2-8.32,10,10,0,0,0-7.25,9.6V60h20V58.73Z"/></g><rect class="cls-16" x="137.67" y="60.67" width="188.17" height="266.06" rx="9.74"/><rect class="cls-2" x="148.58" y="71.11" width="166.36" height="245.19"/><rect class="cls-17" x="154.98" y="78.6" width="153.57" height="230.21"/><path class="cls-13" d="M292.28,65.08v10h-121v-10a6.87,6.87,0,0,1,.32-2.09,7,7,0,0,1,6.7-4.93h107A7,7,0,0,1,292.28,65.08Z"/><path class="cls-18" d="M292.28,72.58v2.5h-121V67.84a31.14,31.14,0,0,1,.32-4.85,7,7,0,0,1,6.7-4.93h.86a10.45,10.45,0,0,0-3.2,7.28v7.24Z"/><g class="cls-19"><line class="cls-20" x1="197.56" y1="103.07" x2="222.51" y2="103.07"/><line class="cls-20" x1="278.49" y1="111.03" x2="297.45" y2="111.03"/><line class="cls-20" x1="197.56" y1="111.03" x2="270.27" y2="111.03"/><line class="cls-20" x1="197.56" y1="118.98" x2="297.45" y2="118.98"/><line class="cls-20" x1="265.7" y1="126.93" x2="297.45" y2="126.93"/><line class="cls-20" x1="197.56" y1="126.93" x2="257.8" y2="126.93"/><line class="cls-20" x1="230.69" y1="103.07" x2="297.45" y2="103.07"/></g><g class="cls-19"><line class="cls-20" x1="197.56" y1="160.24" x2="222.51" y2="160.24"/><line class="cls-20" x1="278.49" y1="168.2" x2="297.45" y2="168.2"/><line class="cls-20" x1="197.56" y1="168.2" x2="270.27" y2="168.2"/><line class="cls-20" x1="197.56" y1="176.15" x2="297.45" y2="176.15"/><line class="cls-20" x1="265.7" y1="184.1" x2="297.45" y2="184.1"/><line class="cls-20" x1="197.56" y1="184.1" x2="257.8" y2="184.1"/><line class="cls-20" x1="230.69" y1="160.24" x2="297.45" y2="160.24"/></g><g class="cls-19"><line class="cls-20" x1="197.56" y1="215.41" x2="222.51" y2="215.41"/><line class="cls-20" x1="278.49" y1="223.37" x2="297.45" y2="223.37"/><line class="cls-20" x1="197.56" y1="223.37" x2="270.27" y2="223.37"/><line class="cls-20" x1="197.56" y1="231.32" x2="297.45" y2="231.32"/><line class="cls-20" x1="265.7" y1="239.27" x2="297.45" y2="239.27"/><line class="cls-20" x1="197.56" y1="239.27" x2="257.8" y2="239.27"/><line class="cls-20" x1="230.69" y1="215.41" x2="297.45" y2="215.41"/></g><g class="cls-19"><line class="cls-20" x1="197.56" y1="271.58" x2="222.51" y2="271.58"/><line class="cls-20" x1="278.49" y1="279.53" x2="297.45" y2="279.53"/><line class="cls-20" x1="197.56" y1="279.53" x2="270.27" y2="279.53"/><line class="cls-20" x1="197.56" y1="287.49" x2="297.45" y2="287.49"/><line class="cls-20" x1="265.7" y1="295.44" x2="297.45" y2="295.44"/><line class="cls-20" x1="197.56" y1="295.44" x2="257.8" y2="295.44"/><line class="cls-20" x1="230.69" y1="271.58" x2="297.45" y2="271.58"/></g><rect class="cls-21" x="166.27" y="100.67" width="22.87" height="22.87" rx="2.1"/><rect class="cls-21" x="166.27" y="157.66" width="22.87" height="22.87" rx="2.1"/><rect class="cls-21" x="166.27" y="214.64" width="22.87" height="22.87" rx="2.1"/><rect class="cls-21" x="166.27" y="271.63" width="22.87" height="22.87" rx="2.1"/><polyline class="cls-22" points="169.09 108.08 177.71 118.49 194.29 92.32"/><polyline class="cls-22" points="169.09 164.59 177.71 175 194.29 148.83"/><path class="cls-23" d="M105.53,181.18a16.2,16.2,0,0,0,.7,3.11,1.31,1.31,0,0,1-1.09.52"/><path class="cls-12" d="M126.91,327c0,1.18-10.68,2.14-23.85,2.14s-23.86-1-23.86-2.14,10.68-2.15,23.86-2.15S126.91,325.82,126.91,327Z"/><path class="cls-24" d="M114,194.51l-5.28,23.15a1.13,1.13,0,0,0,.93,1.35L126,221.36a1.1,1.1,0,0,0,1.23-.85l5.28-23.15a1.12,1.12,0,0,0-.93-1.35l-16.41-2.35A1.08,1.08,0,0,0,114,194.51Z"/><polygon class="cls-25" points="114.98 195.25 109.94 217.43 126.23 219.76 131.28 197.59 114.98 195.25"/><line class="cls-26" x1="129.55" y1="199.23" x2="115.7" y2="197.24"/><line class="cls-26" x1="129.08" y1="201.32" x2="115.24" y2="199.33"/><line class="cls-26" x1="123.32" y1="203.06" x2="114.67" y2="201.82"/><line class="cls-26" x1="122.7" y1="204.86" x2="114.05" y2="203.62"/><line class="cls-26" x1="122.09" y1="206.66" x2="113.44" y2="205.42"/><line class="cls-26" x1="125.26" y1="216.62" x2="116.61" y2="215.37"/><path class="cls-27" d="M107.64,217.94a7.25,7.25,0,0,0,2.28-2l2-2.33a1.93,1.93,0,0,0,.55-1c-1.09-.09-1.79,1.33-2.89,1.41a22.71,22.71,0,0,1,2.18-5.16,1.6,1.6,0,0,0,.31-1.28,8.3,8.3,0,0,0-3,2.22,16.58,16.58,0,0,0-1.64,2.09,22.41,22.41,0,0,0-2.95,7.23"/><path class="cls-28" d="M102.94,236.59l-11.72-9.88s-5.45,7.39-3.4,14.53c1,3.5,2.28,5.24,2.83,6.91s4,23.57,3.78,25.18-2.16,6.11-2.88,10.85c-.87,5.69-.72,24.25-1.39,29.17s3.86,5.75,4.11,4.09c2.14-14.23,7.78-36.4,8.57-43.52S103.31,253.79,102.94,236.59Z"/><path class="cls-27" d="M103,250.61,97.88,262.3a26.14,26.14,0,0,1,3.55,12.26c.09,2.25-.11,4.51-.05,6.77a2.76,2.76,0,0,0,.07.49c.68-3.34,1.19-6.1,1.39-7.9.56-5,.56-13,.38-23.32Z"/><path class="cls-28" d="M95.06,312.87S94,318,94.27,318.69A9,9,0,0,0,96.7,322c1.13.73,3.64,1.59,3.84,1.9a.78.78,0,0,1-.14,1.06,5.26,5.26,0,0,1-3.58.91c-3.41-.57-3.76-2.07-5.74-2.31-.35-.05-1,.46-1.93,0a2.27,2.27,0,0,1-1.33-2.19,9.81,9.81,0,0,1,1.51-3.65c.57-1,1-5.86,1-5.86"/><path class="cls-29" d="M100.66,325.16c.25-.43.32-1.07.09-1.23a19,19,0,0,0-2.12-1.27c-.67-.31-1.71-.58-1.34-.38s-.31,1-.93.91c-2.14-.13-3.71-1.55-4.93-1.85-1.75-.44-2.49-2.52-2.57-2.85a8.34,8.34,0,0,0-1.26,2.4,4.31,4.31,0,0,0-.26,1.84,4.23,4.23,0,0,1,.2,1.75,3.37,3.37,0,0,0,1.26.45,5,5,0,0,0,1.36,0l.15-1.1a4.84,4.84,0,0,1,1.09.11,5.67,5.67,0,0,1,1.65.77c.25.29.44.82.77,1a6.73,6.73,0,0,0,2.8.7C98.9,326.55,100.24,325.88,100.66,325.16Z"/><path class="cls-28" d="M118.94,324.94c-.26-.28-3-.72-4.24-1.25a7.41,7.41,0,0,1-3-2.83c-.29-.69-.22-4.19-.18-5.66.25-10.13,2.12-34.89,2.39-40.82.47-10.31-.86-20.94-4.83-37.49L94.35,225.56s-4.14,7.69-2.75,15c.8,4.26,4.34,4.92,4.94,6.58s9.53,28.37,9.53,28.37a50.25,50.25,0,0,0-1.84,12.11c-.09,5.4,2.36,21.7,2.81,27.9.06,1.22.27,4.12-.09,5-.44,1.14-1.55,2.47-1.5,3.9a2.18,2.18,0,0,0,1.68,1.94c1.05.33,1.63-.28,2-.29,2.08-.09,2.66,1.34,6.25,1.34a5.7,5.7,0,0,0,3.57-1.48A.77.77,0,0,0,118.94,324.94Z"/><path class="cls-29" d="M119.25,326.21c.19-.46.17-1.11-.09-1.22a19.77,19.77,0,0,0-2.37-.92c-.73-.19-1.85-.29-1.44-.15s-.18,1-.83,1.05c-2.22.22-4-.93-5.34-1-1.87-.14-2.56-2.07-2.69-2.39a8.48,8.48,0,0,0-1.32,2.58,4,4,0,0,0,0,1.86,4.19,4.19,0,0,1,.45,1.7,3.62,3.62,0,0,0,1.36.24,5.7,5.7,0,0,0,1.41-.2v-1.12a5.07,5.07,0,0,1,1.13-.07,3.64,3.64,0,0,1,1.83.65c.31.23.63.61,1,.7a7.28,7.28,0,0,0,2.92.22C117.63,327.87,118.91,327,119.25,326.21Z"/><path class="cls-29" d="M91.53,225.46c-1,1.1-4.57,7-4.61,11.9a22.43,22.43,0,0,0,1.84,9c.91,2.64,2.61,5,2.61,5.5s2.67.81,8.32.46c10.43-.66,14.26-2.62,14.26-2.62s.35-4.34-.72-13.76c-.51-4.47-4.32-11.55-4.32-11.55"/><path class="cls-28" d="M82,206.11s1.68,8.35,2.12,9.84,2.62,10.92,4.69,10.76,13.39-9.62,13.39-9.62l-1.61-3.2-10,4.75s-.9-10.79-1.69-13.36"/><path class="cls-27" d="M85.86,211.25c1.06,3.73,3.22,7.66,3.87,10.55.13.58,7-1.93,7-4.52"/><path class="cls-13" d="M88.76,194.54s-3.3.35-5,1.63c-4.27,3.27-1,15.13-1,15.13s-.21.64,2.66.48a20.53,20.53,0,0,0,5.17-1l-.83-9.72"/><path class="cls-15" d="M85,201.25s-.36,7,.9,10.5a11.7,11.7,0,0,0,2.34-.31Z"/><path class="cls-28" d="M104.55,172.65c2,2.58,1.6,6.21,1.11,9.43l-.75,4.89a2.45,2.45,0,0,1-3.14,2.58c0,1.35,0,2.7,0,4-2.31.05-4.61.06-6.92,0a6.66,6.66,0,0,0-.6-2.74c-1.13,0-1.88-1.16-2.32-2.2a29.75,29.75,0,0,1-1.24-3.7,20.13,20.13,0,0,1-1-5.07,7.34,7.34,0,0,1,1.46-4.86A8.82,8.82,0,0,1,94,173c1.44-.75,3.15-1.34,4.63-.68"/><path class="cls-29" d="M102.16,184.94a4.24,4.24,0,0,1,.19-3,2,2,0,0,1,.61-.77,1.26,1.26,0,0,1,1.23-.12,1.32,1.32,0,0,1,.62.57,17.85,17.85,0,0,0,.44-5.65,7.36,7.36,0,0,0-4.67-6.4c-4.88-2-11.91,0-13.89,4.77a11.86,11.86,0,0,0,2.13,11.89c2.54,2.69,6.2,3.09,9.57,2.53,1.72-.28,4.39-.11,5.28-2.46a.27.27,0,0,0-.27-.35C102.7,186,102.21,185.2,102.16,184.94Z"/><path class="cls-29" d="M102.54,178.57c.18.28.14.66.31,1a2.21,2.21,0,0,0,1.18.91c.83.38.63,1.59.61,2.13.63-.42.73-1.55.88-2.12s.28-1.31.47-1.95a9.53,9.53,0,0,0,.55-1.87,7.65,7.65,0,0,0-2.93-6.2,4.09,4.09,0,0,0-4.58.05,3.61,3.61,0,0,0-1.3,1.66,1.07,1.07,0,0,0,0,.89"/><path class="cls-15" d="M91.43,194.57c.12-.79.33-1.71,1.07-2a2,2,0,0,1,.65-.14,52.9,52.9,0,0,1,6.78-.32,6.2,6.2,0,0,1,2.74.48,6.69,6.69,0,0,1,2.67,3.4"/><path class="cls-13" d="M110.5,223.52a17.22,17.22,0,0,1-1.3-1.53c-.63-1.23-1.17-6.41-1-7.73s1.49-2.18,2.05-5.33a11.67,11.67,0,0,0-1.87-8.58c-1.31-1.91-.53-1.9-1-4.25a2.19,2.19,0,0,0-.47-1.16,11.32,11.32,0,0,0-2.63-1.25c-3.66-.57-5.81-.12-9.51,0a31.49,31.49,0,0,0-5.46.69c-2,.44-3.72,1-4.13,3.66a27.23,27.23,0,0,0,1.17,12.36c.84,2.62,5.86,11.7,4.62,13.46A5.71,5.71,0,0,0,90,225.56c-.32,1.84,3.83,2.48,5.6,2.63a71.25,71.25,0,0,0,8.52-.05c2.05-.1,6.54-.82,6.86-3.35A1.85,1.85,0,0,0,110.5,223.52Z"/><path class="cls-15" d="M109.72,209.71a7.12,7.12,0,0,1-.55,2.12,5.74,5.74,0,0,1-3.73.17,53.39,53.39,0,0,0-1.68-7.14S109.72,209,109.72,209.71Z"/><path class="cls-28" d="M107.1,208s6.76,16.34,9.69,16.34c2.14,0,7.37-15.08,7.37-15.08l-3.31-1.57L117.16,214l-3.73-11.78"/><path class="cls-28" d="M120.2,208.82a6.43,6.43,0,0,0,1-2.95,12.57,12.57,0,0,1-.08-3.12,13,13,0,0,1,1.11-2.14c.32-.28,1.49-.73,1.78-.53s.64-.71,1.12-.64a1,1,0,0,1,.87.92c0,.43.64.51.72.83a4.48,4.48,0,0,0,.16.84c.12.23.47.12.59.71s0,.6,0,.87.28.26.2.78a6.68,6.68,0,0,1-.76,1.82,5.22,5.22,0,0,1-1.84,1.86,3.54,3.54,0,0,0-1.08,1.49"/><path class="cls-29" d="M122,196.2a.4.4,0,0,0-.58-.16.52.52,0,0,0-.13.65l2,4.52s.16.19.47-.08.23-.45.23-.45S122.1,196.33,122,196.2Z"/><path class="cls-27" d="M124.12,200.39a4.52,4.52,0,0,1-1.22,1.27c-.31.3-.27.49-.62.79.61,0,.5-.4,1.28-1a1.66,1.66,0,0,0,.81-1,.14.14,0,0,0-.25-.11Z"/><path class="cls-13" d="M100.88,193.44c1.76.09,6.89-.81,9.73,2.17,2.39,2.5,3.76,9,4.72,11.69-2.39,2.44-4.7,4.41-8.32,3.61-.13-.1-1.93-5.75-3.24-6.26"/><path class="cls-29" d="M114,245.32s1.17,28,1,30S112.43,316,112.43,316s-4.65.81-7.44,0c0,0-3.6-30.06,0-39.42l-1.6-9s.24,6.68,0,8S96,315,96,315s-4.76-.13-6.93-2c0,0-.68-26.43,4.28-37.55l-4.54-29.09,2.61-7.41Z"/><path class="cls-30" d="M103.39,267.55c-.67-4.3-4.77-19.55-4.94-19.91-2.25-1.74-4.3-3.27-5-4.72,1.22,3.68,3.58,3.87,4.47,5.77,2.18,4.7.51,3.66,5.61,19.4"/><path class="cls-29" d="M83.36,193.25c-.1,1.49.2,3,.22,4.47a5.37,5.37,0,0,1-1.39,4.11c-1.09,1-3.12,1-3.9-.22a5.86,5.86,0,0,0,4.27,3.07,9,9,0,0,0,5.32-.82,12.42,12.42,0,0,0,7.2-11.49c-.11-4-3.14-7.84-7.37-5.75A8.16,8.16,0,0,0,83.36,193.25Z"/></g></g></svg>