<svg id="Layer_1" data-name="Layer 1" xmlns="http://www.w3.org/2000/svg" xmlns:xlink="http://www.w3.org/1999/xlink" viewBox="0 0 1280 1024"><defs><style>.cls-1{fill:url(#linear-gradient);}</style><linearGradient id="linear-gradient" x1="375.72" y1="537.06" x2="375.72" y2="-234.94" gradientTransform="matrix(-0.77, 0.63, -0.87, -1.06, 1129.61, 759.4)" gradientUnits="userSpaceOnUse"><stop offset="0" stop-color="#80e0f4"/><stop offset="0.09" stop-color="#77d9f1"/><stop offset="0.24" stop-color="#5dc8ea"/><stop offset="0.43" stop-color="#34abde"/><stop offset="0.52" stop-color="#1e9cd7"/><stop offset="0.99" stop-color="#0075be"/></linearGradient></defs><title>waves_landing</title><path class="cls-1" d="M1296.91,306.43a1419.74,1419.74,0,0,0-148.69-131.17c-49-37.47-103.8-72.72-159.25-76.18-127.22-8-184.7,148.11-306.71,164.24-38,5-80.59-4-114.86,10-56.68,23.25-68.66,99.38-63.69,167.65s20.46,141.56-3.4,199.63c-17.19,41.81-52.94,69.94-91.16,91.17-39.48,21.92-83.07,38-130.21,42.8-46.47,4.73-95.6-1.52-141.75,4.32C45,790.58-30.62,853.47-59.08,942.11s-9,200.63,50.53,290.64c57.76,87.33,145.64,148.69,225.84,215a1809.61,1809.61,0,0,1,191.77,183.92c13.54,15,27.7,31,45.38,38.63,33.67,14.61,64.71-5.79,89.33-25.47l463.15-370.07c185.83-148.49,373.16-298.51,516.48-491.28,11-14.87,22-30.34,27-49.2,9.52-36.24-4.39-79.08-21.29-117.92-52.24-120.06-135.87-230.67-237.86-314.62"/></svg>